<svg width="294" height="64" viewBox="0 0 294 64" fill="none" xmlns="http://www.w3.org/2000/svg">
  <rect width="294" height="64" rx="8" fill="#111318"/>
  <path d="M21 17H47C54.5 17 60 21.8 60 28.4C60 32.3 57.9 35.2 54.8 36.9C58.5 38.6 61 41.9 61 46.3C61 53.5 55.1 58 47.3 58H21V17ZM35.2 33.1H44.1C46.8 33.1 48.4 31.7 48.4 29.5C48.4 27.3 46.8 26 44.1 26H35.2V33.1ZM35.2 49H44.9C47.6 49 49.3 47.4 49.3 45.1C49.3 42.8 47.6 41.3 44.9 41.3H35.2V49Z" fill="#EE3536"/>
  <text x="74" y="41" fill="#F7F8FA" font-family="Arial, Helvetica, sans-serif" font-weight="700" font-size="25">BETONLINE</text>
</svg>
