<svg xmlns="http://www.w3.org/2000/svg" viewBox="0 0 1570 479" width="1570" height="479" shape-rendering="geometricPrecision">
  <path d="M 479 105 L 479 142 L 530 142 L 531 143 L 531 289 L 574 289 L 574 144 L 576 142 L 617 142 L 620 139 L 625 131 L 639 117 L 650 109 L 655 107 L 656 105 Z M 338 105 L 338 289 L 466 289 L 466 252 L 381 252 L 380 251 L 380 214 L 381 213 L 456 213 L 457 212 L 457 178 L 381 178 L 380 177 L 380 143 L 381 142 L 461 142 L 461 105 Z M 92 178 L 92 179 L 104 179 L 105 180 L 122 180 L 123 181 L 154 182 L 158 184 L 158 289 L 258 289 L 259 288 L 266 288 L 267 287 L 277 286 L 278 285 L 281 285 L 282 284 L 287 283 L 294 279 L 296 279 L 305 273 L 315 262 L 320 251 L 320 247 L 321 246 L 321 228 L 320 227 L 319 221 L 313 210 L 301 199 L 283 190 L 281 190 L 271 186 L 260 184 L 259 183 L 249 182 L 248 181 L 243 181 L 242 180 L 236 180 L 235 179 L 217 178 L 216 177 L 205 177 L 204 176 L 204 141 L 205 140 L 243 140 L 244 141 L 249 141 L 250 142 L 255 143 L 260 146 L 263 149 L 266 156 L 266 162 L 263 169 L 260 172 L 254 175 L 254 176 L 258 176 L 259 177 L 263 177 L 264 178 L 271 179 L 275 181 L 278 181 L 279 182 L 284 183 L 290 186 L 293 186 L 296 184 L 305 175 L 310 166 L 311 157 L 312 156 L 312 146 L 311 145 L 310 137 L 306 129 L 302 125 L 302 124 L 295 118 L 286 113 L 284 113 L 281 111 L 279 111 L 275 109 L 266 108 L 265 107 L 259 107 L 258 106 L 247 106 L 246 105 L 158 105 L 158 174 L 157 175 L 151 175 L 150 176 L 125 176 L 124 177 Z M 199 190 L 201 189 L 202 190 L 205 190 L 206 191 L 209 191 L 210 192 L 225 195 L 226 196 L 240 200 L 243 202 L 245 202 L 260 210 L 270 219 L 274 226 L 274 228 L 275 229 L 275 239 L 273 243 L 264 251 L 259 253 L 256 253 L 255 254 L 250 254 L 249 255 L 205 255 L 204 254 L 204 197 Z" fill="#f82d2d" fill-rule="evenodd"/>
  <path d="M 1334 105 L 1334 289 L 1458 289 L 1458 265 L 1362 265 L 1361 264 L 1361 210 L 1362 209 L 1447 209 L 1447 184 L 1362 184 L 1361 183 L 1361 130 L 1362 129 L 1454 129 L 1454 106 L 1453 105 Z M 1316 105 L 1291 105 L 1291 227 L 1290 228 L 1168 106 L 1167 106 L 1167 289 L 1192 289 L 1192 170 L 1193 169 L 1292 265 L 1293 265 L 1316 288 L 1317 288 L 1317 106 Z M 1123 105 L 1123 289 L 1150 289 L 1150 105 Z M 995 105 L 995 289 L 1106 289 L 1106 265 L 1023 265 L 1022 264 L 1022 105 Z M 978 105 L 953 105 L 953 226 L 952 227 L 951 227 L 876 152 L 875 152 L 829 106 L 828 106 L 828 289 L 853 289 L 853 170 L 854 169 L 855 169 L 884 198 L 885 198 L 961 273 L 962 273 L 977 288 L 978 288 Z M 701 106 L 700 107 L 695 107 L 694 108 L 687 109 L 686 110 L 675 113 L 667 117 L 652 127 L 638 142 L 630 155 L 630 157 L 625 167 L 624 174 L 622 179 L 622 184 L 621 185 L 621 209 L 622 210 L 622 216 L 623 217 L 623 220 L 624 221 L 624 224 L 625 225 L 627 233 L 631 240 L 631 242 L 633 244 L 634 247 L 640 256 L 647 263 L 647 264 L 648 264 L 655 271 L 664 277 L 684 286 L 687 286 L 692 288 L 696 288 L 697 289 L 703 289 L 704 290 L 726 290 L 727 289 L 734 289 L 735 288 L 739 288 L 740 287 L 743 287 L 744 286 L 755 283 L 772 274 L 780 268 L 791 257 L 793 253 L 796 250 L 804 235 L 804 233 L 807 227 L 808 220 L 809 219 L 810 207 L 811 206 L 811 190 L 810 189 L 810 182 L 809 181 L 809 177 L 808 176 L 807 169 L 798 149 L 786 133 L 776 124 L 767 118 L 757 113 L 755 113 L 752 111 L 750 111 L 746 109 L 739 108 L 738 107 L 733 107 L 732 106 L 721 106 L 720 105 Z M 704 130 L 715 130 L 716 129 L 717 130 L 728 130 L 729 131 L 733 131 L 734 132 L 737 132 L 740 134 L 742 134 L 755 141 L 768 153 L 773 160 L 779 172 L 781 182 L 782 183 L 782 189 L 783 190 L 783 205 L 782 206 L 782 212 L 781 213 L 780 220 L 773 235 L 769 241 L 754 255 L 741 262 L 739 262 L 735 264 L 732 264 L 731 265 L 725 265 L 724 266 L 709 266 L 708 265 L 702 265 L 701 264 L 698 264 L 697 263 L 692 262 L 680 256 L 673 251 L 661 238 L 654 225 L 654 223 L 652 219 L 652 216 L 651 215 L 651 211 L 650 210 L 650 200 L 649 199 L 650 197 L 650 186 L 651 185 L 651 181 L 652 180 L 652 177 L 653 176 L 654 171 L 659 161 L 663 155 L 679 140 L 690 134 L 692 134 L 695 132 L 698 132 L 699 131 L 703 131 Z" fill="#f1f1f1" fill-rule="evenodd"/>
</svg>